<svg width="800" height="200" viewBox="0 0 800 200" xmlns="http://www.w3.org/2000/svg">
  <rect width="800" height="200" fill="#080808"/>

  <!-- Shadow card -->
  <rect x="32" y="32" width="188" height="118" rx="14" fill="#1A1200" transform="rotate(-8,126,91)" stroke="#C9A84C" stroke-width="0.6" opacity="0.5"/>

  <!-- Main card -->
  <rect x="24" y="50" width="188" height="118" rx="14" fill="#0D0C00"/>
  <rect x="24" y="50" width="188" height="118" rx="14" fill="none" stroke="#C9A84C" stroke-width="1.6"/>

  <!-- Texture -->
  <line x1="24" y1="90"  x2="84"  y2="50"  stroke="#C9A84C" stroke-width="0.25" opacity="0.12"/>
  <line x1="24" y1="118" x2="112" y2="50"  stroke="#C9A84C" stroke-width="0.25" opacity="0.12"/>
  <line x1="24" y1="146" x2="140" y2="50"  stroke="#C9A84C" stroke-width="0.25" opacity="0.12"/>
  <line x1="24" y1="168" x2="168" y2="50"  stroke="#C9A84C" stroke-width="0.25" opacity="0.10"/>
  <line x1="50" y1="168" x2="212" y2="50"  stroke="#C9A84C" stroke-width="0.25" opacity="0.10"/>
  <line x1="80" y1="168" x2="212" y2="80"  stroke="#C9A84C" stroke-width="0.25" opacity="0.08"/>
  <line x1="110" y1="168" x2="212" y2="110" stroke="#C9A84C" stroke-width="0.25" opacity="0.08"/>

  <!-- Chip -->
  <rect x="42" y="68" width="28" height="22" rx="4" fill="#C9A84C"/>
  <rect x="42" y="68" width="28" height="22" rx="4" fill="none" stroke="#8B6914" stroke-width="0.5"/>
  <line x1="42" y1="74"  x2="70" y2="74"  stroke="#7A5A00" stroke-width="0.8"/>
  <line x1="42" y1="80"  x2="70" y2="80"  stroke="#7A5A00" stroke-width="0.8"/>
  <line x1="51" y1="68"  x2="51" y2="90"  stroke="#7A5A00" stroke-width="0.8"/>
  <line x1="60" y1="68"  x2="60" y2="90"  stroke="#7A5A00" stroke-width="0.8"/>

  <!-- NFC -->
  <path d="M190 62 Q196 69 190 76" fill="none" stroke="#C9A84C" stroke-width="1.4" stroke-linecap="round" opacity="0.7"/>
  <path d="M194 58 Q203 69 194 80" fill="none" stroke="#C9A84C" stroke-width="1.1" stroke-linecap="round" opacity="0.45"/>
  <path d="M198 54 Q210 69 198 84" fill="none" stroke="#C9A84C" stroke-width="0.8" stroke-linecap="round" opacity="0.25"/>

  <!-- LP Monogram -->
  <text x="118" y="125" text-anchor="middle" font-family="Georgia, serif" font-size="38" font-weight="300" fill="#C9A84C" opacity="0.12">LP</text>
  <text x="118" y="125" text-anchor="middle" font-family="Georgia, serif" font-size="38" font-weight="300" fill="none" stroke="#C9A84C" stroke-width="0.7" opacity="0.35">LP</text>

  <!-- Star -->
  <polygon points="176,66 178.5,73 186,73 180,78 182.5,85 176,80 169.5,85 172,78 166,73 173.5,73" fill="#C9A84C" opacity="0.85"/>

  <!-- Card dots -->
  <circle cx="42"  cy="146" r="3" fill="#C9A84C" opacity="0.55"/>
  <circle cx="52"  cy="146" r="3" fill="#C9A84C" opacity="0.55"/>
  <circle cx="62"  cy="146" r="3" fill="#C9A84C" opacity="0.55"/>
  <circle cx="72"  cy="146" r="3" fill="#C9A84C" opacity="0.55"/>
  <circle cx="82"  cy="146" r="3" fill="#C9A84C" opacity="0.35"/>
  <circle cx="92"  cy="146" r="3" fill="#C9A84C" opacity="0.35"/>
  <circle cx="102" cy="146" r="3" fill="#C9A84C" opacity="0.35"/>
  <circle cx="112" cy="146" r="3" fill="#C9A84C" opacity="0.35"/>

  <!-- Exclusive Access -->
  <text x="206" y="160" text-anchor="end" font-family="Georgia, serif" font-size="7.5" fill="#C9A84C" letter-spacing="2.5" opacity="0.6">EXCLUSIVE ACCESS</text>

  <!-- Wordmark -->
  <text x="240" y="96"  font-family="Georgia, serif" font-size="11" fill="#C9A84C" letter-spacing="7" opacity="0.6">✦  EXCLUSIVE ACCESS  ✦</text>
  <text x="238" y="140" font-family="Georgia, serif" font-size="52" font-weight="300" fill="#FFFFFF" letter-spacing="2">Luminary</text>
  <rect x="238" y="150" width="530" height="0.8" fill="#C9A84C" opacity="0.35"/>
  <text x="238" y="170" font-family="Georgia, serif" font-size="15" fill="#C9A84C" letter-spacing="20">PASS</text>
  <text x="238" y="192" font-family="Georgia, serif" font-size="9" fill="#3A3200" letter-spacing="6">THE ELITE INFLUENCER NETWORK</text>
</svg>
